<?xml version="1.0" ?><svg style="enable-background:new 0 0 96 96;" version="1.1" viewBox="0 0 96 96" xml:space="preserve" xmlns="http://www.w3.org/2000/svg" xmlns:xlink="http://www.w3.org/1999/xlink"><g id="Layer_2"><g id="XMLID_257_"><g id="XMLID_206_"><g id="XMLID_244_"><rect height="29.935" id="XMLID_253_" style="fill:#006A9D;" transform="matrix(-0.7284 -0.6852 0.6852 -0.7284 8.03 137.0096)" width="11.556" x="25.394" y="51.946"/></g><g id="XMLID_243_"><path d="M25.183,83.683l-10.385-9.769L37.16,50.143l10.385,9.769L25.183,83.683z       M18.617,73.798l6.45,6.067l18.66-19.837l-6.45-6.067L18.617,73.798z" id="XMLID_258_" style="fill:#004363;"/></g></g><g id="XMLID_223_"><g id="XMLID_242_"><rect height="29.935" id="XMLID_249_" style="fill:#006A9D;" transform="matrix(0.6945 -0.7195 0.7195 0.6945 -27.3054 66.3822)" width="11.556" x="58.732" y="50.375"/></g><g id="XMLID_241_"><path d="M71.301,81.804L47.818,59.139l9.901-10.259l23.483,22.664L71.301,81.804z       M51.637,59.072l19.596,18.912l6.149-6.371L57.786,52.7L51.637,59.072z" id="XMLID_254_" style="fill:#004363;"/></g></g><g id="XMLID_218_"><g id="XMLID_240_"><rect height="29.935" id="XMLID_248_" style="fill:#006A9D;" transform="matrix(-1 0.0031 -0.0031 -1 94.4964 143.1703)" width="11.556" x="41.358" y="56.692"/></g><g id="XMLID_239_"><path d="M40.058,88l-0.103-32.636l14.257-0.045l0.103,32.636L40.058,88z M42.665,58.057      l0.086,27.234l8.855-0.028L51.52,58.029L42.665,58.057z" id="XMLID_250_" style="fill:#004363;"/></g></g><g id="XMLID_228_"><path d="M64.109,57.242c0,0.004-0.004,0.004-0.004,0.008     c-1.669,7.762-8.563,13.577-16.819,13.577c-4.458,0-8.521-1.693-11.576-4.474c-1.735-1.577-3.146-3.503-4.122-5.67     c-0.743-1.648-1.237-3.441-1.424-5.321c0,0-0.913-9.854,0.556-15.964c1.444-5.985,0.058-9.8,0.004-9.958     c0.183,0.079,6.056,2.748,7.343,9.655c0.083-0.054,1.013-4.919,2.843-8.642c3.283-6.678,5.321-12.112,5.205-18.79     c0,0,13.245,15.129,10.302,27.374c0,0,1.108-0.772,2.283-2.561c1.291-1.943,2.665-5.093,2.793-9.758     C61.494,26.718,68.629,44.412,64.109,57.242z" id="XMLID_277_" style="fill:#E80029;"/><path d="M64.109,57.242c0,0.004-0.004,0.004-0.004,0.008     c-1.669,7.762-8.563,13.577-16.819,13.577c-4.458,0-8.521-1.693-11.576-4.474c-1.735-1.577-3.146-3.503-4.122-5.67     c7.367,8.036,19.359,7.43,23.85-1.702c3.105-6.321,3.536-15.412,3.262-22.505c1.291-1.943,2.665-5.093,2.793-9.758     C61.494,26.718,68.629,44.412,64.109,57.242z" id="XMLID_273_" style="fill:#BB0021;"/><path d="M47.285,72.179c-9.57,0-17.508-7.172-18.463-16.682     c-0.039-0.423-0.914-10.176,0.588-16.416c1.341-5.572,0.062-9.134,0.049-9.169l-1.104-2.982l2.91,1.27     c0.214,0.094,4.225,1.901,6.629,6.361c0.46-1.497,1.061-3.188,1.805-4.701c3.292-6.697,5.176-11.817,5.069-18.172L44.704,8     l2.429,2.774c0.493,0.563,10.737,12.409,11.056,23.96c0.964-1.791,1.856-4.411,1.955-8.053l0.176-6.484l2.426,6.015     c0.299,0.74,7.248,18.256,2.66,31.408C63.551,66.062,55.944,72.179,47.285,72.179z M32.649,32.31     c0.164,1.84,0.118,4.365-0.613,7.403c-1.401,5.82-0.534,15.428-0.526,15.524c0.815,8.114,7.597,14.241,15.775,14.241     c7.424,0,13.943-5.261,15.5-12.51l0.056-0.192c2.813-8.004,0.841-18.164-0.864-24.246c-1.548,5.291-4.616,7.497-4.785,7.615     l-2.919,2.039l0.832-3.462c2.021-8.409-4.273-18.525-7.796-23.346c-0.546,5.287-2.433,10.071-5.187,15.675     c-1.374,2.795-2.244,6.379-2.572,7.728c-0.198,0.815-0.28,1.152-0.756,1.455l-1.687,1.073l-0.366-1.965     C36.104,35.921,34.232,33.662,32.649,32.31z" id="XMLID_245_" style="fill:#004363;"/></g><g id="XMLID_211_"><circle cx="47.136" cy="58.979" id="XMLID_276_" r="7.622" style="fill:#F8CB00;"/></g><g id="XMLID_225_"><circle cx="36.571" cy="50.754" id="XMLID_274_" r="2.339" style="fill:#F8CB00;"/></g><g id="XMLID_226_"><circle cx="37.552" cy="45.471" id="XMLID_272_" r="1.358" style="fill:#F8CB00;"/></g><g id="XMLID_229_"><circle cx="46.379" cy="40.34" id="XMLID_270_" r="2.945" style="fill:#F8CB00;"/></g><g id="XMLID_233_"><circle cx="47.136" cy="46.452" id="XMLID_268_" r="0.981" style="fill:#F8CB00;"/></g><g id="XMLID_236_"><circle cx="55.436" cy="50.754" id="XMLID_266_" r="2.264" style="fill:#F8CB00;"/></g><g id="XMLID_237_"><circle cx="58.38" cy="46.83" id="XMLID_264_" r="1.585" style="fill:#F8CB00;"/></g></g></g></svg>